<svg id="Layer_1" data-name="Layer 1" xmlns="http://www.w3.org/2000/svg" viewBox="0 0 2925 2925"><defs><style>.cls-1{fill:#fff;}</style></defs><path class="cls-1" d="M2215.33,1301.73A1042.29,1042.29,0,0,1,2156,1919.08c-78.62,185.91-210.15,344.32-375.62,456.1s-364.55,176.94-579.47,177a1033,1033,0,0,1-403.43-81.42c-185.92-78.62-344.33-210.15-456.1-375.61s-176.95-364.56-177-579.47a1033,1033,0,0,1,81.43-403.44C324.46,926.3,456,767.89,621.45,656.11s364.55-176.94,579.47-177a1032.53,1032.53,0,0,1,702.31,274.2c18-47.72,36.59-97.58,53.76-144.88a1185,1185,0,0,0-95.73-72c-188.4-127.33-416-201.76-660.34-201.73A1179.1,1179.1,0,0,0,221.7,855.31C94.37,1043.7,19.93,1271.31,20,1515.65a1179.15,1179.15,0,0,0,520.63,979.22c188.39,127.33,416,201.76,660.33,201.73A1179.1,1179.1,0,0,0,2180.15,2176c127.33-188.39,201.76-416,201.73-660.33a1186.15,1186.15,0,0,0-19.58-214.92Z"/><path class="cls-1" d="M1930.06,1384.86,1926.4,1365l-135.62.93,6,28.82A582.19,582.19,0,0,1,1552.39,1998a582.86,582.86,0,1,1,69-911.39l26.23,24.18,12.61-33.38c10.57-28,21.47-57.26,31.57-85.07l5.76-15.88-13-10.82a712.85,712.85,0,0,0-457.39-165.79h-.35l-.94,0a715.11,715.11,0,0,0-1.06,1430.22l.27,0h2a715.56,715.56,0,0,0,702.9-845.25Z"/><path class="cls-1" d="M2621,718.27,2697,368.94l-508.8,326.55L2119.8,908.12l-740.13,481.67a230.91,230.91,0,0,0-167.36-71.59c-127.92,0-231.62,103.7-231.62,231.62s103.7,231.62,231.62,231.62,231.62-103.7,231.62-231.62c0-32,0-12.2-3.75-45.89L2210.93,1060l197.45,15.19,501.21-243Z"/></svg>