<svg id="Layer_1" data-name="Layer 1" xmlns="http://www.w3.org/2000/svg" viewBox="0 0 2925 2925"><defs><style>.cls-1{fill:#fff;}</style></defs><path class="cls-1" d="M1467.1,2358.37c-70.64,0-141.29.12-211.93,0-66.65-.14-110.81-38.85-121.94-104.11-22.38-131.23-78.34-246.3-170.36-342.83C858,1801.37,792,1672.14,770.45,1521.58,715,1134.19,973,792.94,1334.22,726.18c378.73-70,735.94,160.08,820.57,531.07,55.84,244.8-4.61,462.82-175.59,647.49C1885.45,2006,1825,2122.22,1803,2258.52c-9.58,59.42-56.48,99.47-116.63,99.76C1613.29,2358.63,1540.19,2358.36,1467.1,2358.37Z"/><path class="cls-1" d="M1469.23,2466.14q99.48,0,198.94,0c50.48,0,83.41,31.77,83.53,82.4.1,39.23.94,78.78-3.56,117.62-5.25,45.4-26.92,81.18-74.92,94.91-4.41,1.26-9,7.77-10.38,12.72-6.29,21.8-11.11,44-17.12,65.9-12.33,44.83-43.57,68.53-90.19,68.63q-87.49.2-175,0c-46.2-.12-77.64-24.21-89.85-69.09-5.79-21.31-10.28-43-16.19-64.24-1.43-5.15-5.29-12.39-9.48-13.59-55.71-15.91-74.66-58.91-78.91-110.17-3.09-37.2-2.21-74.9-.62-112.28,1.83-42.73,34.49-72.51,77.44-72.72C1331.69,2465.9,1400.46,2466.14,1469.23,2466.14Z"/><path class="cls-1" d="M1547.94,262.66c0,46,.65,92-.2,138-.76,41.33-28.35,73-66.4,78.55-39.14,5.72-74.86-15.07-87.2-51.67a92.92,92.92,0,0,1-4.83-28.82c-.36-91.4-.62-182.8,0-274.2.25-39.45,22.69-68.74,57.45-78.57,33.73-9.53,70.85,3,87.77,33.65,8.18,14.82,12.25,33.45,12.93,50.56,1.76,44.1.59,88.31.59,132.48Z"/><path class="cls-1" d="M2198.7,778.63c-44.64-1.52-70.3-16.27-83.94-47.39-13.55-30.9-9.44-61.18,14.33-85.42q99.93-101.94,201.84-202c30.82-30.2,79.63-28.37,109.74,1.61,30.38,30.25,32.71,78.7,2.42,109.68-66.52,68.05-133.71,135.49-202.23,201.52C2227.75,769.32,2207.3,774.33,2198.7,778.63Z"/><path class="cls-1" d="M828.52,698.66c.09,32.12-18.09,59.84-47.57,72.53-30.28,13-63.51,6.89-88.23-17.53C639.43,701,586.53,648,533.48,595.11c-12.61-12.57-25.43-25-37.74-37.81-31.14-32.52-31-81.94.16-112.61,30.82-30.38,79.58-31.23,111.15-.12C674,510.5,740.1,577.22,806.42,643.75,821.44,658.81,828.41,677.44,828.52,698.66Z"/><path class="cls-1" d="M2464.47,2326.11c-2.66,42.28-17.27,67.13-47.7,80.58-30.27,13.37-60.51,10.24-84.06-12.65q-104.3-101.33-205.69-205.61c-28.58-29.45-25.18-77.82,3.62-106.87,29.65-29.91,78-33.43,108.16-4.07q104.17,101.46,205,206.27C2456,2296.4,2460.11,2316.75,2464.47,2326.11Z"/><path class="cls-1" d="M473.1,2340.32c0-27.78,8-46.5,23.48-62,65.89-66,131.6-132.16,198-197.67,31.23-30.84,78.51-30.6,109.49-1,31.27,29.87,34.12,79.66,3.55,111q-99.65,102-201.7,201.71c-24.66,24.11-55.44,28.24-87,13.88C488.62,2392.48,474.19,2367.49,473.1,2340.32Z"/><path class="cls-1" d="M2623.6,1497c-44.17,0-88.34.16-132.51,0-49.88-.23-85.47-33.51-85.22-79.34s36-79,85.85-79.11q135.27-.27,270.53.09c42.32.18,75.82,29.27,80.69,68.61s-18.2,75.61-55.93,86.39c-9.26,2.65-19.34,3.08-29.06,3.27-22.69.45-45.4.14-68.1.13Z"/><path class="cls-1" d="M311.23,1497c-44.79,0-89.58.24-134.36-.07-48.75-.33-83.15-33.37-83.12-79.2,0-45.58,35-79,83.49-79.18,91.42-.23,182.84-.47,274.25.15,42.12.28,73.54,29.21,79.13,70.32,5.07,37.33-18.76,74-56,84.49-9.83,2.77-20.55,3.27-30.88,3.35C399.58,1497.24,355.41,1497,311.23,1497Z"/></svg>