<svg id="Layer_1" data-name="Layer 1" xmlns="http://www.w3.org/2000/svg" viewBox="0 0 2925 2925"><defs><style>.cls-1{fill:#fff;}</style></defs><path class="cls-1" d="M2860.51,2622.32c1.2-45.34-18.26-77.62-56.42-100.12-8.72-5.14-17.05-11-25.9-15.88-72.55-40.24-150.17-68.45-228.11-95.93-36.17-12.75-72.52-25-108.4-38.57-22.09-8.34-33.73-25.36-33.84-49.4-.14-29.32-1.7-58.78.62-87.92,1.16-14.63,6.27-31.31,15.27-42.52,29.78-37.11,43.63-79.95,52.95-125.34,4.26-20.74,7-43.08,17-61.09,18.5-33.43,28.33-68.88,34.27-105.74,1.89-11.72-1-24.27-2.1-36.39-1.54-16.23-4.85-32.41-4.95-48.62-.1-15.91,2.07-32,4.63-47.73,8.75-54.09.93-104.93-26.94-152.59-46.17-79-117-119-205.78-129.25-75.47-8.68-149.16-.57-213.32,43.3-82.37,56.33-121.91,133.91-108.45,236,4.66,35.39,13.58,71.61-1.21,107.39-2.67,6.47-2.68,15.22-.91,22.14,8.43,32.87,17.41,65.61,27.18,98.1,6.37,21.18,16.26,41.42,21.34,62.84,10.48,44.17,18.21,89.34,48.19,125.58,17.67,21.37,25.68,45,25,72.21-.29,12.26.22,24.54.22,36.81.05,65.6-6.91,73.82-68.18,95.9-82.64,29.78-165.39,59.5-246.6,92.88-36.07,14.82-69.3,37.27-102.31,58.61-21.84,14.11-34.35,35.67-35.24,63.17-1.08,33.57-3.54,67.09-5.23,100.65-.17,3.45.78,7,1.21,10.51H2864C2862.68,2680.64,2859.74,2651.43,2860.51,2622.32Z"/><path class="cls-1" d="M1253.69,2622.32c1.2-45.34-18.26-77.62-56.42-100.12-8.72-5.14-17-11-25.9-15.88-72.55-40.24-150.17-68.45-228.1-95.93-36.18-12.75-72.53-25-108.4-38.57-22.1-8.34-33.74-25.36-33.85-49.4-.14-29.32-1.7-58.78.62-87.92,1.16-14.63,6.28-31.31,15.27-42.52,29.78-37.11,43.63-79.95,53-125.34,4.26-20.74,7-43.08,17-61.09,18.5-33.43,28.32-68.88,34.27-105.74,1.88-11.72-1-24.27-2.11-36.39-1.54-16.23-4.84-32.41-5-48.62-.1-15.91,2.08-32,4.63-47.73,8.76-54.09.93-104.93-26.94-152.59-46.17-79-117-119-205.77-129.25-75.48-8.68-149.17-.57-213.33,43.3-82.37,56.33-121.9,133.91-108.45,236,4.67,35.39,13.58,71.61-1.21,107.39-2.67,6.47-2.68,15.22-.91,22.14,8.43,32.87,17.41,65.61,27.18,98.1,6.37,21.18,16.27,41.42,21.35,62.84,10.47,44.17,18.2,89.34,48.19,125.58,17.67,21.37,25.67,45,25,72.21-.29,12.26.22,24.54.23,36.81,0,65.6-6.92,73.82-68.19,95.9-82.64,29.78-165.38,59.5-246.59,92.88C133.2,2493.2,100,2515.65,67,2537c-21.84,14.11-34.35,35.67-35.23,63.17-1.09,33.57-3.54,67.09-5.24,100.65-.17,3.45.78,7,1.22,10.51h1229.5C1255.87,2680.64,1252.92,2651.43,1253.69,2622.32Z"/><path class="cls-1" d="M2029.32,1386.22c-1.35-30.68-4.29-59.89-3.52-89,1.2-45.34-18.26-77.62-56.42-100.12-8.72-5.14-17.05-11-25.9-15.88-72.55-40.24-150.17-68.46-228.11-95.93-36.17-12.75-72.52-25-108.4-38.57-22.09-8.35-33.73-25.37-33.84-49.4-.14-29.33-1.7-58.78.62-87.92,1.16-14.63,6.27-31.31,15.27-42.52,29.78-37.11,43.63-80,53-125.35,4.26-20.74,7-43.08,17-61.08,18.51-33.43,28.33-68.88,34.27-105.75,1.89-11.71-1-24.26-2.1-36.38-1.54-16.23-4.85-32.41-4.95-48.63-.1-15.9,2.07-32,4.63-47.73,8.75-54.08.93-104.93-26.94-152.58-46.17-79-117-119-205.78-129.25-75.47-8.68-149.16-.57-213.32,43.3-82.37,56.33-121.91,133.91-108.45,236,4.66,35.39,13.58,71.61-1.21,107.39-2.67,6.47-2.68,15.22-.91,22.14,8.43,32.86,17.41,65.61,27.18,98.1,6.37,21.18,16.26,41.41,21.34,62.84,10.48,44.17,18.21,89.34,48.19,125.58,17.67,21.36,25.67,45,25,72.2-.29,12.27.22,24.55.22,36.82,0,65.6-6.91,73.82-68.18,95.9-82.64,29.78-165.39,59.5-246.6,92.87-36.07,14.83-69.3,37.28-102.31,58.61-21.84,14.12-34.35,35.67-35.24,63.18-1.08,33.57-3.54,67.09-5.23,100.64-.18,3.46.78,7,1.21,10.52Z"/><path class="cls-1" d="M1484.7,1987.13l152.63,113.47a51.49,51.49,0,0,0,71.82-10.57l1.22-1.65a51.48,51.48,0,0,0-10.56-71.82l-225-167.28v-282.7a51.48,51.48,0,0,0-51.33-51.33h-2.06a51.48,51.48,0,0,0-51.33,51.33v270.27l-237.54,173.93a51.48,51.48,0,0,0-11.09,71.74l3.38,4.62a51.48,51.48,0,0,0,71.74,11.09l156-114.18C1407.93,1951.34,1461.89,1974.18,1484.7,1987.13Z"/></svg>