<svg id="Layer_1" data-name="Layer 1" xmlns="http://www.w3.org/2000/svg" viewBox="0 0 2925 2925"><defs><style>.cls-1{fill:#fff;}</style></defs><path class="cls-1" d="M540.33,2901.71c24.44,0,47.51,0,70.59,0q553.5.33,1107,1.16c23,.06,33.22-5.8,37.07-29.66,15-93,52.83-443,141.31-488.06,18.81-9.57,41.16-15,62.32-16.66,99.86-7.65,200-12,299.81-20,106.21-8.49,177.38-111.81,161.61-228.13-3.31-24.42-.55-50.26,3.38-74.8,1.88-11.7,10.55-26,20.47-32.1,54.82-33.67,49.18-73.33,16.25-114.9,12.7-11.1,26.08-21.89,38.41-33.77,29.43-28.35,33.41-49.94,18.45-88.2a254.54,254.54,0,0,1-11.58-37.77c-8-36.25,2.67-50.56,36.45-65.85,31.65-14.33,63.43-30.79,90.46-52.23,31.95-25.35,38.88-59.32,18.1-94.71-33.29-56.71-71.83-110.34-108.23-165.21q-46.5-70.11-93.19-140.1c-23.32-35-31-74.66-20-113.7,52.32-185.14,13.08-361.07-59.64-529.9-106.15-246.43-299-399.51-552-478.43C1660,49.61,1498.09,24.31,1333.11,28.83c-196.86,5.39-388.18,41-557.58,147-185.46,116-308,284.53-383.67,489.15C353.76,768,328.59,873.48,328,983.05c-1.14,200.36,67.07,380.18,165.79,551.86,112,194.75,178.08,404.2,168,631.25-6.47,146.14-47.25,555.76-107.87,689-5.45,12-10.28,24.24-15.08,36.5C538.18,2893.31,539.37,2895.74,540.33,2901.71Z"/></svg>