<svg id="Layer_1" data-name="Layer 1" xmlns="http://www.w3.org/2000/svg" viewBox="0 0 2925 2925"><defs><style>.cls-1{fill:#fff;}</style></defs><path class="cls-1" d="M2185.34,551.7c111.57,50.88,300.49,170.32,278,389.51-20.1,196-349.52,328.16-587.57,398.6q-4.77,59.06-4.82,119.37c0,657.71,432.85,1214.3,1029.22,1400.5V58.68C2614.49,147.88,2366.37,322.11,2185.34,551.7Z"/><path class="cls-1" d="M1391.07,595.81c51.08,50.72,122.24,81.51,201.57,81.48,75.78,0,145.33-32.07,195.82-82.8S1870.84,474,1870.86,398v-.36A281.52,281.52,0,0,0,1589.49,116h-.79A279.49,279.49,0,0,0,1308.86,395.6h0C1308.84,474.44,1340,545.15,1391.07,595.81Z"/><path class="cls-1" d="M2264.42,803.33h0A108.56,108.56,0,0,0,2225.29,767a106.44,106.44,0,0,0-50.76-12.47c-23,0-46.8,6.7-70,19.54-154.2,85.38-318.54,141-492.63,165.25-41.39,5.78-83.29,9.51-125.45,12.39-10.39-22.22-23.61-40.47-39-55.1-18.35-17.51-39.47-29.86-61.62-39-35.05-14.53-69.23-21.42-102.25-21.4-39.78,0-77.62,10-113.15,27.33s-69,42-100.92,71.55Q820,1166.29,694.84,1499.35c-16.42,43.52-26.3,88.79-26.29,136.12,0,2.18.06,4.37.11,6.56,1.24,25.1,13.8,119.62,128,226.85,6.48,6.09,12.23,11.86,17.34,17.35C899.47,1967.62,974.14,2041,991.58,2065l70.65,73.12c7,7.25,14,14.75,21.54,22.81-3.91,7.45-7.27,13.85-10.65,20.07C1000.25,2315,927,2448.89,854.52,2583.39c-17,31.48-25.5,64.65-25.5,97.18a184,184,0,0,0,33.64,106c16.46,23.58,36.58,41.62,58.73,53.7a146.7,146.7,0,0,0,70.44,18.17c28.07,0,56.07-8.2,81.07-24.07s47-39.32,63.65-69.58c95.75-174.26,190.16-349.33,285.27-523.83,11-20.27,19.54-39.82,25.32-59a195.3,195.3,0,0,0,8.81-56.51,168.75,168.75,0,0,0-17-73.43c-11.22-23.56-27.71-46.08-49.12-68.41q-104.5-109-209.29-217.46c-23.67-24.62-47.34-49.46-71.35-74.59,85.59-165.49,203.27-301.61,319.07-446.61l.19-.24.06-.08.28-.36c2.74-3.56,25.42-32.87,51.89-62.49,127.46-8,260-32.87,420.69-76.94l.07,0c39.37-11,90.12-28.77,145.94-52.32a1627.11,1627.11,0,0,0,175.63-86.77c19.28-11.06,34.53-26,44.9-43.2a109.06,109.06,0,0,0,15.83-56.42C2283.79,844.61,2277.3,822.82,2264.42,803.33Z"/><path class="cls-1" d="M770.64,1959.1a123.88,123.88,0,0,0-45.35-65.36c-22.1-16.56-50.41-26.78-82.39-28a158.15,158.15,0,0,0-49.5,5.75,155.65,155.65,0,0,0-54.57,28.24c-16.28,12.94-30.48,29.17-42.37,48-65.66,104.15-129.69,208.84-200.17,309.49C217.9,2369.2,134.42,2435.78,45,2545.49c0,0-25.15,91.42,57.07,147.45s152.21,35.73,175.35,16.8a6.13,6.13,0,0,0,1-1.08c13.75-14.45,27.31-28.76,40.67-43.21,172.77-186.77,317.78-389.53,438.11-606.06C775.85,2026,779.56,1990.36,770.64,1959.1Z"/></svg>